<?xml version="1.0" encoding="UTF-8"?>
<svg id="svg2666" xmlns="http://www.w3.org/2000/svg" xmlns:svg="http://www.w3.org/2000/svg" xmlns:sodipodi="http://sodipodi.sourceforge.net/DTD/sodipodi-0.dtd" xmlns:rdf="http://www.w3.org/1999/02/22-rdf-syntax-ns#" xmlns:inkscape="http://www.inkscape.org/namespaces/inkscape" xmlns:dc="http://purl.org/dc/elements/1.1/" xmlns:cc="http://creativecommons.org/ns#" version="1.1" viewBox="0 0 880 880">
  <!-- Generator: Adobe Illustrator 29.8.2, SVG Export Plug-In . SVG Version: 2.1.1 Build 3)  -->
  <defs>
    <style>
      .st0 {
        fill-rule: evenodd;
      }

      .st0, .st1 {
        fill: #fbfbfb;
      }
    </style>
  </defs>
  <sodipodi:namedview id="namedview2668" bordercolor="#666666" borderopacity="1" gridtolerance="10" guidetolerance="10" inkscape:current-layer="g2674" inkscape:cx="624.57627" inkscape:cy="352.37288" inkscape:pageopacity="0" inkscape:pageshadow="2" inkscape:window-height="1018" inkscape:window-maximized="1" inkscape:window-width="1920" inkscape:window-x="-8" inkscape:window-y="-8" inkscape:zoom="0.63777693" objecttolerance="10" pagecolor="#ffffff" showgrid="false"/>
  <g id="g2674" inkscape:groupmode="layer" inkscape:label="mountain-logo-silhouette-freesvg.org">
    <g id="g3462">
      <path id="path2684" class="st1" d="M41.52,913.53h4.9c1.51,0,2.7-.14,3.56-.42s1.55-.68,2.06-1.19c.72-.72,1.28-1.69,1.68-2.91.4-1.22.6-2.7.6-4.43,0-2.41-.39-4.25-1.18-5.55-.79-1.29-1.75-2.16-2.87-2.59-.82-.31-2.13-.47-3.93-.47h-4.82v17.56ZM38.48,916.24v-22.98h7.91c1.78,0,3.15.11,4.09.33,1.31.3,2.44.85,3.37,1.65,1.21,1.02,2.12,2.33,2.72,3.93.6,1.59.9,3.42.9,5.46,0,1.74-.2,3.29-.61,4.64-.41,1.35-.93,2.46-1.57,3.35-.64.88-1.33,1.58-2.09,2.09-.76.51-1.67.89-2.74,1.15-1.07.26-2.3.39-3.69.39h-8.28Z" inkscape:connector-curvature="0"/>
      <path id="path2686" class="st1" d="M63.39,906.32h9.29c-.13-1.4-.48-2.46-1.07-3.16-.9-1.09-2.06-1.63-3.49-1.63-1.29,0-2.38.43-3.27,1.3-.88.87-1.37,2.03-1.47,3.49M72.66,910.86l2.92.37c-.46,1.7-1.31,3.02-2.55,3.96-1.24.94-2.83,1.41-4.76,1.41-2.43,0-4.36-.75-5.79-2.25-1.43-1.5-2.14-3.6-2.14-6.31s.72-4.97,2.16-6.52c1.44-1.55,3.31-2.32,5.61-2.32s4.04.76,5.45,2.27c1.41,1.51,2.11,3.65,2.11,6.39,0,.17,0,.42-.02.75h-12.42c.11,1.83.62,3.23,1.55,4.21.93.97,2.09,1.46,3.48,1.46,1.03,0,1.92-.27,2.65-.82.73-.55,1.31-1.42,1.74-2.62" inkscape:connector-curvature="0"/>
      <path id="path2688" class="st1" d="M77.99,911.26l2.79-.44c.16,1.12.59,1.99,1.31,2.58.72.6,1.72.9,3.01.9s2.26-.27,2.89-.79c.63-.53.94-1.15.94-1.86,0-.64-.28-1.14-.83-1.51-.39-.25-1.35-.57-2.88-.96-2.07-.52-3.51-.97-4.31-1.35-.8-.38-1.41-.91-1.82-1.58-.41-.67-.62-1.42-.62-2.23,0-.74.17-1.43.51-2.06.34-.63.8-1.16,1.39-1.58.44-.32,1.04-.6,1.8-.82.76-.23,1.57-.34,2.44-.34,1.31,0,2.45.19,3.44.56.99.38,1.72.89,2.19,1.53.47.64.79,1.5.97,2.58l-2.75.37c-.13-.86-.49-1.53-1.09-2.01-.6-.48-1.45-.72-2.55-.72-1.3,0-2.22.21-2.78.64-.55.43-.83.93-.83,1.51,0,.37.11.7.35.99.23.3.59.56,1.08.75.28.11,1.11.35,2.5.72,2,.53,3.39.97,4.18,1.31.79.34,1.4.83,1.85,1.48.45.65.67,1.45.67,2.41s-.27,1.83-.82,2.66c-.55.83-1.34,1.47-2.38,1.93-1.03.45-2.21.68-3.51.68-2.16,0-3.81-.45-4.95-1.35-1.14-.9-1.86-2.23-2.17-4" inkscape:connector-curvature="0"/>
      <path id="path2690" class="st1" d="M95.17,899.59h2.81v16.65h-2.81v-16.65ZM95.17,893.26h2.81v3.25h-2.81v-3.25Z" inkscape:connector-curvature="0"/>
      <path id="path2692" class="st1" d="M104.1,907.62c0,2.19.43,3.78,1.3,4.78.87,1,1.95,1.51,3.26,1.51s2.38-.5,3.26-1.5c.88-1,1.31-2.56,1.31-4.7s-.45-3.57-1.35-4.61c-.9-1.03-1.99-1.55-3.26-1.55s-2.32.51-3.19,1.53-1.31,2.53-1.31,4.54M101.77,917.61l2.75.42c.11.84.43,1.46.95,1.84.7.52,1.65.78,2.86.78,1.3,0,2.31-.26,3.02-.78.71-.52,1.19-1.25,1.44-2.2.15-.58.21-1.78.2-3.62-1.23,1.46-2.77,2.19-4.6,2.19-2.29,0-4.06-.83-5.31-2.48-1.25-1.65-1.88-3.63-1.88-5.94,0-1.59.29-3.05.86-4.4.57-1.34,1.41-2.38,2.5-3.11,1.09-.73,2.37-1.1,3.85-1.1,1.96,0,3.58.79,4.86,2.37v-2h2.6v14.39c0,2.59-.26,4.43-.79,5.51-.53,1.08-1.36,1.93-2.51,2.56-1.14.63-2.55.94-4.22.94-1.98,0-3.59-.45-4.81-1.34s-1.81-2.24-1.77-4.03" inkscape:connector-curvature="0"/>
      <path id="path2694" class="st1" d="M120.14,916.24v-16.65h2.52v2.37c1.22-1.83,2.99-2.74,5.29-2.74,1,0,1.93.18,2.77.54.84.36,1.47.83,1.89,1.42.42.58.71,1.28.88,2.08.1.52.16,1.44.16,2.74v10.23h-2.81v-10.13c0-1.15-.11-2.01-.33-2.58-.22-.57-.61-1.03-1.17-1.36-.56-.34-1.21-.51-1.97-.51-1.2,0-2.24.38-3.11,1.15-.87.76-1.31,2.21-1.31,4.34v9.1h-2.81Z" inkscape:connector-curvature="0"/>
      <path id="path2696" class="st1" d="M140.08,906.32h9.29c-.13-1.4-.48-2.46-1.07-3.16-.9-1.09-2.06-1.63-3.49-1.63-1.3,0-2.38.43-3.27,1.3-.88.87-1.37,2.03-1.47,3.49M149.34,910.86l2.92.37c-.46,1.7-1.31,3.02-2.55,3.96-1.24.94-2.83,1.41-4.76,1.41-2.43,0-4.36-.75-5.79-2.25-1.43-1.5-2.14-3.6-2.14-6.31s.72-4.97,2.16-6.52,3.31-2.32,5.61-2.32,4.04.76,5.45,2.27c1.41,1.51,2.11,3.65,2.11,6.39,0,.17,0,.42-.02.75h-12.42c.1,1.83.62,3.23,1.55,4.21.93.97,2.09,1.46,3.48,1.46,1.04,0,1.92-.27,2.65-.82.73-.55,1.31-1.42,1.74-2.62" inkscape:connector-curvature="0"/>
      <path id="path2698" class="st1" d="M157.67,907.93c0,2.13.45,3.73,1.35,4.78.9,1.05,1.96,1.58,3.18,1.58s2.28-.5,3.14-1.51,1.29-2.55,1.29-4.62c0-2.28-.44-3.95-1.32-5.02-.88-1.06-1.96-1.6-3.24-1.6s-2.3.51-3.14,1.54c-.84,1.03-1.26,2.64-1.26,4.85M166.59,916.24v-2.09c-1.05,1.65-2.61,2.47-4.65,2.47-1.33,0-2.55-.37-3.66-1.1-1.11-.73-1.97-1.75-2.58-3.07-.61-1.31-.92-2.82-.92-4.52s.28-3.17.83-4.52c.55-1.35,1.38-2.39,2.49-3.11,1.11-.72,2.34-1.08,3.71-1.08,1,0,1.9.21,2.68.63.78.42,1.42.97,1.91,1.65v-8.25h2.81v22.98h-2.63Z" inkscape:connector-curvature="0"/>
      <path id="path2700" class="st1" d="M193.18,907.88c-1.02.42-2.56.77-4.6,1.07-1.16.17-1.98.36-2.46.57s-.85.51-1.11.92c-.26.4-.39.85-.39,1.34,0,.75.28,1.38.85,1.88.57.5,1.4.75,2.49.75s2.05-.24,2.89-.71,1.46-1.13,1.86-1.95c.3-.64.45-1.58.45-2.82v-1.03ZM193.41,914.17c-1.05.89-2.05,1.52-3.02,1.89-.96.37-2,.55-3.1.55-1.82,0-3.22-.45-4.2-1.34s-1.47-2.03-1.47-3.42c0-.82.19-1.56.55-2.23.37-.67.85-1.21,1.45-1.62.6-.41,1.27-.71,2.02-.92.55-.15,1.39-.29,2.5-.42,2.27-.27,3.94-.59,5.02-.97,0-.39.01-.63.01-.74,0-1.15-.27-1.96-.8-2.43-.72-.64-1.79-.96-3.21-.96-1.32,0-2.3.23-2.93.7-.63.46-1.1,1.29-1.4,2.47l-2.75-.37c.25-1.18.66-2.13,1.24-2.86.57-.73,1.4-1.28,2.49-1.67,1.09-.39,2.34-.59,3.77-.59s2.57.17,3.46.5c.89.33,1.54.76,1.96,1.26.42.51.71,1.15.88,1.92.09.48.14,1.35.14,2.6v3.76c0,2.62.06,4.28.18,4.98.12.69.36,1.36.71,2h-2.94c-.3-.59-.5-1.28-.58-2.06" inkscape:connector-curvature="0"/>
      <path id="path2702" class="st1" d="M200.41,916.24v-16.65h2.52v2.37c1.22-1.83,2.99-2.74,5.29-2.74,1,0,1.93.18,2.77.54.84.36,1.47.83,1.89,1.42.42.58.71,1.28.88,2.08.1.52.16,1.44.16,2.74v10.23h-2.81v-10.13c0-1.15-.11-2.01-.33-2.58-.22-.57-.61-1.03-1.17-1.36-.56-.34-1.21-.51-1.97-.51-1.2,0-2.24.38-3.11,1.15-.87.76-1.31,2.21-1.31,4.34v9.1h-2.81Z" inkscape:connector-curvature="0"/>
      <path id="path2704" class="st1" d="M220.11,907.93c0,2.13.45,3.73,1.35,4.78.9,1.05,1.96,1.58,3.18,1.58s2.28-.5,3.14-1.51c.86-1.01,1.29-2.55,1.29-4.62,0-2.28-.44-3.95-1.31-5.02-.88-1.06-1.96-1.6-3.24-1.6s-2.3.51-3.14,1.54c-.84,1.03-1.26,2.64-1.26,4.85M229.02,916.24v-2.09c-1.05,1.65-2.61,2.47-4.65,2.47-1.33,0-2.55-.37-3.66-1.1-1.11-.73-1.97-1.75-2.59-3.07-.61-1.31-.92-2.82-.92-4.52s.28-3.17.83-4.52c.55-1.35,1.38-2.39,2.49-3.11,1.11-.72,2.34-1.08,3.71-1.08,1,0,1.89.21,2.68.63.78.42,1.42.97,1.91,1.65v-8.25h2.81v22.98h-2.63Z" inkscape:connector-curvature="0"/>
      <path id="path2706" class="st1" d="M244.97,916.24v-16.65h2.52v2.53c.65-1.18,1.25-1.96,1.8-2.34.55-.38,1.16-.57,1.82-.57.95,0,1.92.3,2.91.91l-.99,2.61c-.69-.4-1.38-.6-2.07-.6-.61,0-1.17.18-1.66.56-.49.37-.84.89-1.05,1.54-.31,1-.47,2.1-.47,3.29v8.71h-2.81Z" inkscape:connector-curvature="0"/>
      <path id="path2708" class="st1" d="M257.79,906.32h9.29c-.13-1.4-.48-2.46-1.07-3.16-.9-1.09-2.06-1.63-3.49-1.63-1.3,0-2.39.43-3.27,1.3-.88.87-1.37,2.03-1.46,3.49M267.05,910.86l2.92.37c-.46,1.7-1.31,3.02-2.55,3.96-1.24.94-2.83,1.41-4.76,1.41-2.43,0-4.36-.75-5.79-2.25-1.42-1.5-2.14-3.6-2.14-6.31s.72-4.97,2.16-6.52c1.44-1.55,3.31-2.32,5.61-2.32s4.04.76,5.45,2.27c1.41,1.51,2.11,3.65,2.11,6.39,0,.17,0,.42-.02.75h-12.42c.1,1.83.62,3.23,1.55,4.21.93.97,2.09,1.46,3.48,1.46,1.03,0,1.92-.27,2.65-.82.73-.55,1.31-1.42,1.74-2.62" inkscape:connector-curvature="0"/>
      <path id="path2710" class="st1" d="M273.47,893.26h2.81v22.98h-2.81v-22.98Z" inkscape:connector-curvature="0"/>
      <path id="path2712" class="st1" d="M282.76,906.32h9.29c-.13-1.4-.48-2.46-1.07-3.16-.9-1.09-2.06-1.63-3.49-1.63-1.3,0-2.39.43-3.27,1.3-.88.87-1.37,2.03-1.47,3.49M292.02,910.86l2.92.37c-.46,1.7-1.31,3.02-2.55,3.96-1.24.94-2.83,1.41-4.76,1.41-2.43,0-4.36-.75-5.79-2.25-1.42-1.5-2.14-3.6-2.14-6.31s.72-4.97,2.16-6.52c1.44-1.55,3.31-2.32,5.61-2.32s4.04.76,5.45,2.27c1.41,1.51,2.11,3.65,2.11,6.39,0,.17,0,.42-.01.75h-12.42c.11,1.83.62,3.23,1.55,4.21.93.97,2.09,1.46,3.48,1.46,1.03,0,1.92-.27,2.65-.82.73-.55,1.31-1.42,1.74-2.62" inkscape:connector-curvature="0"/>
      <path id="path2714" class="st1" d="M309.1,907.88c-1.02.42-2.56.77-4.6,1.07-1.16.17-1.98.36-2.46.57-.48.21-.85.51-1.11.92-.26.4-.39.85-.39,1.34,0,.75.28,1.38.85,1.88.57.5,1.4.75,2.49.75s2.05-.24,2.89-.71c.84-.48,1.46-1.13,1.86-1.95.3-.64.45-1.58.45-2.82l.02-1.03ZM309.33,914.17c-1.05.89-2.05,1.52-3.02,1.89-.96.37-2,.55-3.1.55-1.82,0-3.22-.45-4.2-1.34-.98-.89-1.47-2.03-1.47-3.42,0-.82.18-1.56.55-2.23.37-.67.85-1.21,1.45-1.62.6-.41,1.27-.71,2.02-.92.55-.15,1.39-.29,2.5-.42,2.27-.27,3.94-.59,5.02-.97.01-.39.02-.63.02-.74,0-1.15-.27-1.96-.8-2.43-.72-.64-1.79-.96-3.21-.96-1.32,0-2.3.23-2.93.7-.63.46-1.1,1.29-1.4,2.47l-2.75-.37c.25-1.18.66-2.13,1.24-2.86.57-.73,1.4-1.28,2.49-1.67,1.09-.39,2.34-.59,3.77-.59s2.57.17,3.46.5c.89.33,1.54.76,1.96,1.26.42.51.71,1.15.88,1.92.09.48.14,1.35.14,2.6v3.76c0,2.62.06,4.28.18,4.98.12.69.36,1.36.71,2h-2.94c-.3-.59-.5-1.28-.58-2.06" inkscape:connector-curvature="0"/>
      <path id="path2716" class="st1" d="M315.19,911.26l2.79-.44c.16,1.12.59,1.99,1.31,2.58.72.6,1.72.9,3.01.9s2.26-.27,2.89-.79c.63-.53.94-1.15.94-1.86,0-.64-.28-1.14-.83-1.51-.39-.25-1.35-.57-2.88-.96-2.07-.52-3.51-.97-4.31-1.35-.8-.38-1.41-.91-1.82-1.58-.41-.67-.62-1.42-.62-2.23,0-.74.17-1.43.51-2.06.34-.63.8-1.16,1.39-1.58.44-.32,1.04-.6,1.8-.82.76-.23,1.57-.34,2.44-.34,1.31,0,2.45.19,3.44.56.99.38,1.72.89,2.19,1.53.47.64.79,1.5.97,2.58l-2.75.37c-.13-.86-.49-1.53-1.09-2.01-.6-.48-1.45-.72-2.55-.72-1.3,0-2.22.21-2.78.64-.55.43-.83.93-.83,1.51,0,.37.11.7.35.99.23.3.59.56,1.08.75.28.11,1.11.35,2.49.72,2,.53,3.39.97,4.18,1.31.79.34,1.4.83,1.85,1.48.45.65.67,1.45.67,2.41s-.27,1.83-.82,2.66c-.55.83-1.34,1.47-2.38,1.93-1.04.45-2.21.68-3.51.68-2.16,0-3.81-.45-4.95-1.35-1.14-.9-1.86-2.23-2.17-4" inkscape:connector-curvature="0"/>
      <path id="path2718" class="st1" d="M334.48,906.32h9.29c-.13-1.4-.48-2.46-1.07-3.16-.9-1.09-2.06-1.63-3.49-1.63-1.3,0-2.38.43-3.27,1.3-.88.87-1.37,2.03-1.46,3.49M343.74,910.86l2.92.37c-.46,1.7-1.31,3.02-2.55,3.96-1.24.94-2.83,1.41-4.76,1.41-2.43,0-4.36-.75-5.79-2.25-1.43-1.5-2.14-3.6-2.14-6.31s.72-4.97,2.16-6.52c1.44-1.55,3.31-2.32,5.61-2.32s4.04.76,5.45,2.27c1.41,1.51,2.11,3.65,2.11,6.39,0,.17,0,.42-.02.75h-12.42c.1,1.83.62,3.23,1.55,4.21.93.97,2.09,1.46,3.48,1.46,1.04,0,1.92-.27,2.65-.82.73-.55,1.31-1.42,1.74-2.62" inkscape:connector-curvature="0"/>
      <path id="path2720" class="st1" d="M352.07,907.93c0,2.13.45,3.73,1.35,4.78.9,1.05,1.96,1.58,3.18,1.58s2.28-.5,3.14-1.51,1.29-2.55,1.29-4.62c0-2.28-.44-3.95-1.32-5.02-.88-1.06-1.96-1.6-3.24-1.6s-2.3.51-3.14,1.54c-.84,1.03-1.26,2.64-1.26,4.85M360.99,916.24v-2.09c-1.05,1.65-2.61,2.47-4.65,2.47-1.33,0-2.55-.37-3.66-1.1-1.11-.73-1.97-1.75-2.58-3.07-.61-1.31-.92-2.82-.92-4.52s.28-3.17.83-4.52c.55-1.35,1.38-2.39,2.49-3.11,1.11-.72,2.34-1.08,3.71-1.08,1,0,1.9.21,2.68.63.78.42,1.42.97,1.91,1.65v-8.25h2.81v22.98h-2.62Z" inkscape:connector-curvature="0"/>
      <path id="path2722" class="st1" d="M376.97,899.59h2.81v16.65h-2.81v-16.65ZM376.97,893.26h2.81v3.25h-2.81v-3.25Z" inkscape:connector-curvature="0"/>
      <path id="path2724" class="st1" d="M384.1,916.24v-16.65h2.52v2.37c1.22-1.83,2.99-2.74,5.29-2.74,1,0,1.92.18,2.76.54.84.36,1.47.83,1.89,1.42.42.58.71,1.28.88,2.08.1.52.16,1.44.16,2.74v10.23h-2.81v-10.13c0-1.15-.11-2.01-.33-2.58-.22-.57-.61-1.03-1.17-1.36-.56-.34-1.21-.51-1.96-.51-1.2,0-2.24.38-3.11,1.15-.87.76-1.31,2.21-1.31,4.34v9.1h-2.81Z" inkscape:connector-curvature="0"/>
      <path id="path2726" class="st1" d="M413.39,908.01c0,2.14.43,3.73,1.3,4.75.87,1.03,1.91,1.54,3.15,1.54s2.33-.53,3.22-1.59c.89-1.06,1.34-2.71,1.34-4.93s-.44-3.71-1.31-4.77c-.87-1.05-1.91-1.58-3.12-1.58s-2.26.56-3.18,1.69c-.92,1.12-1.39,2.76-1.39,4.9M410.85,922.61v-23.02h2.56v2.16c.61-.84,1.29-1.48,2.05-1.9.76-.42,1.69-.63,2.77-.63,1.42,0,2.67.37,3.76,1.1,1.09.73,1.91,1.77,2.46,3.1s.83,2.79.83,4.38c0,1.7-.31,3.24-.92,4.6-.61,1.36-1.5,2.41-2.66,3.14-1.17.73-2.39,1.09-3.67,1.09-.94,0-1.78-.2-2.53-.59-.75-.4-1.36-.9-1.84-1.5v8.09h-2.81Z" inkscape:connector-curvature="0"/>
      <path id="path2728" class="st1" d="M439.57,916.24v-2.45c-1.29,1.89-3.05,2.83-5.27,2.83-.98,0-1.89-.19-2.74-.56-.85-.38-1.48-.85-1.89-1.42-.41-.57-.7-1.27-.87-2.09-.11-.55-.17-1.43-.17-2.63v-10.31h2.81v9.23c0,1.47.06,2.46.17,2.98.18.74.55,1.32,1.13,1.75.57.42,1.28.63,2.13.63s1.64-.22,2.38-.65c.74-.43,1.26-1.02,1.57-1.77.31-.75.46-1.83.46-3.25v-8.91h2.81v16.65h-2.52Z" inkscape:connector-curvature="0"/>
      <path id="path2730" class="st1" d="M449.07,907.79c0,2,.27,3.44.82,4.33.89,1.45,2.09,2.18,3.61,2.18,1.23,0,2.3-.54,3.2-1.61.9-1.07,1.35-2.67,1.35-4.79s-.43-3.78-1.3-4.82c-.86-1.04-1.91-1.55-3.13-1.55s-2.3.54-3.2,1.61c-.9,1.07-1.35,2.62-1.35,4.65M449.11,916.24h-2.6v-22.98h2.81v8.19c1.19-1.49,2.71-2.23,4.57-2.23,1.03,0,1.99.21,2.91.62.91.41,1.67.99,2.26,1.74.59.75,1.05,1.65,1.39,2.7.34,1.05.5,2.18.5,3.39,0,2.85-.71,5.06-2.12,6.61-1.41,1.56-3.11,2.33-5.08,2.33s-3.51-.82-4.63-2.45v2.08Z" inkscape:connector-curvature="0"/>
      <path id="path2732" class="st1" d="M464.31,893.26h2.81v22.98h-2.81v-22.98Z" inkscape:connector-curvature="0"/>
      <path id="path2734" class="st1" d="M471.5,899.59h2.81v16.65h-2.81v-16.65ZM471.5,893.26h2.81v3.25h-2.81v-3.25Z" inkscape:connector-curvature="0"/>
      <path id="path2736" class="st1" d="M489.48,910.13l2.77.37c-.3,1.91-1.08,3.4-2.33,4.48-1.25,1.08-2.78,1.62-4.6,1.62-2.28,0-4.11-.75-5.49-2.23s-2.08-3.62-2.08-6.4c0-1.8.3-3.37.89-4.72.6-1.35,1.5-2.36,2.72-3.03,1.22-.67,2.54-1.01,3.97-1.01,1.81,0,3.29.46,4.43,1.37,1.15.92,1.89,2.22,2.21,3.9l-2.75.42c-.26-1.12-.72-1.96-1.39-2.53-.66-.57-1.46-.85-2.4-.85-1.42,0-2.57.51-3.46,1.53-.89,1.02-1.33,2.63-1.33,4.84s.43,3.86,1.29,4.88c.86,1.01,1.98,1.52,3.36,1.52,1.11,0,2.03-.34,2.78-1.02s1.21-1.73,1.41-3.14" inkscape:connector-curvature="0"/>
      <path id="path2738" class="st1" d="M505.43,907.93c0,2.13.45,3.73,1.35,4.78.9,1.05,1.96,1.58,3.18,1.58s2.28-.5,3.14-1.51,1.29-2.55,1.29-4.62c0-2.28-.44-3.95-1.31-5.02-.88-1.06-1.96-1.6-3.24-1.6s-2.3.51-3.14,1.54c-.84,1.03-1.26,2.64-1.26,4.85M514.35,916.24v-2.09c-1.05,1.65-2.61,2.47-4.65,2.47-1.33,0-2.55-.37-3.66-1.1-1.11-.73-1.97-1.75-2.58-3.07-.61-1.31-.92-2.82-.92-4.52s.28-3.17.83-4.52c.55-1.35,1.38-2.39,2.49-3.11,1.11-.72,2.34-1.08,3.71-1.08,1,0,1.9.21,2.68.63.78.42,1.42.97,1.91,1.65v-8.25h2.81v22.98h-2.62Z" inkscape:connector-curvature="0"/>
      <path id="path2740" class="st1" d="M523.25,907.92c0,2.13.46,3.73,1.39,4.79.93,1.06,2.1,1.59,3.51,1.59s2.56-.53,3.49-1.6c.93-1.07,1.39-2.69,1.39-4.88,0-2.06-.47-3.62-1.4-4.68-.93-1.06-2.1-1.59-3.49-1.59s-2.58.53-3.51,1.58c-.93,1.06-1.39,2.65-1.39,4.78M520.35,907.91c0-3.08.85-5.37,2.57-6.85,1.43-1.23,3.17-1.85,5.23-1.85,2.29,0,4.15.75,5.61,2.25,1.45,1.5,2.18,3.57,2.18,6.21,0,2.14-.32,3.83-.96,5.05-.64,1.23-1.58,2.18-2.8,2.86-1.23.68-2.57,1.02-4.02,1.02-2.33,0-4.21-.75-5.65-2.24-1.44-1.49-2.15-3.65-2.15-6.46" inkscape:connector-curvature="0"/>
      <path id="path2742" class="st1" d="M539.25,916.24v-16.65h2.52v2.33c.52-.81,1.21-1.47,2.08-1.96.87-.49,1.85-.74,2.96-.74,1.23,0,2.24.26,3.03.77.79.51,1.34,1.23,1.67,2.14,1.32-1.94,3.03-2.91,5.15-2.91,1.65,0,2.92.46,3.81,1.37.89.92,1.33,2.32,1.33,4.22v11.43h-2.81v-10.49c0-1.13-.09-1.94-.27-2.44-.18-.5-.51-.89-.99-1.2-.48-.3-1.05-.45-1.69-.45-1.17,0-2.15.39-2.92,1.17-.77.78-1.16,2.03-1.16,3.74v9.67h-2.81v-10.82c0-1.25-.23-2.2-.69-2.82-.46-.63-1.21-.94-2.25-.94-.79,0-1.53.21-2.2.63-.67.42-1.16,1.03-1.46,1.83-.3.8-.45,1.97-.45,3.48v8.64h-2.81Z" inkscape:connector-curvature="0"/>
      <path id="path2744" class="st1" d="M576.58,907.88c-1.02.42-2.56.77-4.6,1.07-1.16.17-1.98.36-2.46.57-.48.21-.85.51-1.11.92-.26.4-.39.85-.39,1.34,0,.75.28,1.38.85,1.88.57.5,1.4.75,2.49.75s2.05-.24,2.89-.71c.84-.48,1.46-1.13,1.86-1.95.3-.64.45-1.58.45-2.82l.02-1.03ZM576.81,914.17c-1.05.89-2.05,1.52-3.02,1.89-.96.37-2,.55-3.1.55-1.82,0-3.22-.45-4.2-1.34-.98-.89-1.47-2.03-1.47-3.42,0-.82.18-1.56.55-2.23.37-.67.85-1.21,1.45-1.62.6-.41,1.27-.71,2.02-.92.55-.15,1.39-.29,2.5-.42,2.27-.27,3.94-.59,5.02-.97.01-.39.02-.63.02-.74,0-1.15-.27-1.96-.8-2.43-.72-.64-1.79-.96-3.2-.96-1.33,0-2.3.23-2.93.7-.63.46-1.1,1.29-1.4,2.47l-2.75-.37c.25-1.18.66-2.13,1.24-2.86.57-.73,1.4-1.28,2.49-1.67,1.09-.39,2.35-.59,3.77-.59s2.57.17,3.46.5c.89.33,1.54.76,1.96,1.26.42.51.71,1.15.88,1.92.09.48.14,1.35.14,2.6v3.76c0,2.62.06,4.28.18,4.98.12.69.36,1.36.71,2h-2.94c-.3-.59-.5-1.28-.58-2.06" inkscape:connector-curvature="0"/>
      <path id="path2746" class="st1" d="M583.82,899.59h2.81v16.65h-2.81v-16.65ZM583.82,893.26h2.81v3.25h-2.81v-3.25Z" inkscape:connector-curvature="0"/>
      <path id="path2748" class="st1" d="M590.95,916.24v-16.65h2.52v2.37c1.22-1.83,2.99-2.74,5.29-2.74,1,0,1.92.18,2.77.54.84.36,1.47.83,1.89,1.42.42.58.71,1.28.88,2.08.1.52.16,1.44.16,2.74v10.23h-2.81v-10.13c0-1.15-.11-2.01-.33-2.58s-.61-1.03-1.17-1.36c-.56-.34-1.21-.51-1.96-.51-1.2,0-2.24.38-3.11,1.15-.87.76-1.31,2.21-1.31,4.34v9.1h-2.81Z" inkscape:connector-curvature="0"/>
      <path id="path2750" class="st1" d="M620.24,907.79c0,2,.27,3.44.82,4.33.89,1.45,2.09,2.18,3.61,2.18,1.23,0,2.3-.54,3.2-1.61.9-1.07,1.35-2.67,1.35-4.79s-.43-3.78-1.3-4.82c-.86-1.04-1.91-1.55-3.13-1.55s-2.3.54-3.2,1.61c-.9,1.07-1.35,2.62-1.35,4.65M620.28,916.24h-2.6v-22.98h2.81v8.19c1.19-1.49,2.71-2.23,4.57-2.23,1.03,0,1.99.21,2.91.62.91.41,1.67.99,2.26,1.74.59.75,1.05,1.65,1.39,2.7.34,1.05.5,2.18.5,3.39,0,2.85-.71,5.06-2.12,6.61-1.41,1.56-3.11,2.33-5.08,2.33s-3.51-.82-4.63-2.45v2.08Z" inkscape:connector-curvature="0"/>
      <path id="path2752" class="st1" d="M635.42,922.64l-.31-2.65c.61.17,1.15.25,1.61.25.63,0,1.13-.1,1.5-.31.37-.21.68-.5.92-.88.18-.28.46-.98.86-2.1.05-.16.14-.39.25-.69l-6.33-16.67h3.04l3.47,9.6c.45,1.22.85,2.5,1.21,3.84.33-1.25.71-2.5,1.16-3.73l3.55-9.71h2.82l-6.31,16.94c-.68,1.83-1.21,3.08-1.58,3.77-.5.93-1.08,1.61-1.72,2.04-.65.43-1.42.65-2.32.65-.54,0-1.15-.11-1.82-.35" inkscape:connector-curvature="0"/>
      <path id="path2754" class="st1" d="M660.99,916.24v-22.98h15.5v2.71h-12.46v7.12h10.79v2.71h-10.79v10.44h-3.04Z" inkscape:connector-curvature="0"/>
      <path id="path2756" class="st1" d="M680.05,916.24v-16.65h2.52v2.53c.65-1.18,1.25-1.96,1.8-2.34.55-.38,1.15-.57,1.82-.57.95,0,1.92.3,2.91.91l-.99,2.61c-.69-.4-1.38-.6-2.07-.6-.61,0-1.17.18-1.66.56-.49.37-.84.89-1.05,1.54-.31,1-.47,2.1-.47,3.29v8.71h-2.81Z" inkscape:connector-curvature="0"/>
      <path id="path2758" class="st1" d="M692.87,906.32h9.29c-.13-1.4-.48-2.46-1.07-3.16-.9-1.09-2.06-1.63-3.49-1.63-1.3,0-2.38.43-3.27,1.3-.88.87-1.37,2.03-1.47,3.49M702.13,910.86l2.92.37c-.46,1.7-1.31,3.02-2.55,3.96s-2.83,1.41-4.76,1.41c-2.43,0-4.36-.75-5.79-2.25-1.43-1.5-2.14-3.6-2.14-6.31s.72-4.97,2.16-6.52,3.31-2.32,5.61-2.32,4.04.76,5.45,2.27c1.41,1.51,2.11,3.65,2.11,6.39,0,.17,0,.42-.01.75h-12.42c.1,1.83.62,3.23,1.55,4.21.93.97,2.09,1.46,3.48,1.46,1.03,0,1.92-.27,2.65-.82.73-.55,1.31-1.42,1.74-2.62" inkscape:connector-curvature="0"/>
      <path id="path2760" class="st1" d="M710.71,906.32h9.29c-.13-1.4-.48-2.46-1.07-3.16-.9-1.09-2.06-1.63-3.49-1.63-1.3,0-2.38.43-3.27,1.3-.88.87-1.37,2.03-1.47,3.49M719.97,910.86l2.92.37c-.46,1.7-1.31,3.02-2.55,3.96s-2.83,1.41-4.76,1.41c-2.43,0-4.36-.75-5.79-2.25-1.43-1.5-2.14-3.6-2.14-6.31s.72-4.97,2.16-6.52,3.31-2.32,5.61-2.32,4.04.76,5.45,2.27c1.41,1.51,2.11,3.65,2.11,6.39,0,.17,0,.42-.01.75h-12.42c.1,1.83.62,3.23,1.55,4.21.93.97,2.09,1.46,3.48,1.46,1.03,0,1.92-.27,2.65-.82.73-.55,1.31-1.42,1.74-2.62" inkscape:connector-curvature="0"/>
      <path id="path2762" class="st1" d="M725.78,908.86l2.87-.25c.14,1.15.45,2.1.95,2.84s1.26,1.34,2.31,1.79c1.04.45,2.21.68,3.52.68,1.16,0,2.18-.17,3.06-.52.89-.35,1.54-.82,1.98-1.42.43-.6.65-1.26.65-1.97s-.21-1.35-.62-1.89c-.41-.54-1.1-.99-2.07-1.36-.62-.24-1.98-.61-4.09-1.12-2.11-.51-3.59-.99-4.44-1.44-1.1-.57-1.92-1.29-2.46-2.14-.54-.85-.81-1.81-.81-2.87,0-1.16.33-2.25.99-3.26.66-1.01,1.62-1.78,2.88-2.3,1.26-.52,2.67-.78,4.22-.78,1.7,0,3.21.27,4.51.82,1.3.55,2.3,1.35,3,2.42.7,1.06,1.08,2.27,1.13,3.61l-2.92.23c-.16-1.45-.69-2.54-1.59-3.29-.9-.74-2.24-1.11-4-1.11s-3.18.34-4.02,1.01c-.84.68-1.26,1.49-1.26,2.44,0,.83.3,1.51.89,2.04.58.53,2.11,1.08,4.58,1.64,2.47.56,4.17,1.05,5.09,1.47,1.34.62,2.32,1.4,2.96,2.34s.96,2.03.96,3.27-.35,2.37-1.05,3.45c-.7,1.08-1.7,1.92-3.01,2.52-1.31.6-2.79.9-4.42.9-2.08,0-3.82-.3-5.22-.91-1.4-.61-2.51-1.52-3.3-2.73-.8-1.22-1.22-2.59-1.26-4.13" inkscape:connector-curvature="0"/>
      <path id="path2764" class="st1" d="M754.75,916.24l-8.89-22.98h3.3l5.97,16.69c.48,1.34.88,2.59,1.21,3.76.36-1.25.77-2.51,1.24-3.76l6.21-16.69h3.11l-9,22.98h-3.14Z" inkscape:connector-curvature="0"/>
      <path id="path2766" class="st1" d="M780.35,907.24v-2.71h9.73v8.52c-1.49,1.19-3.04,2.09-4.62,2.69-1.59.6-3.22.9-4.89.9-2.26,0-4.31-.48-6.15-1.45-1.85-.97-3.24-2.37-4.18-4.19s-1.41-3.87-1.41-6.13.47-4.33,1.4-6.26c.93-1.94,2.28-3.38,4.03-4.32,1.76-.94,3.78-1.41,6.07-1.41,1.66,0,3.16.27,4.51.81s2.39,1.29,3.16,2.25c.76.96,1.34,2.22,1.74,3.77l-2.74.75c-.35-1.17-.77-2.09-1.29-2.76-.51-.67-1.24-1.21-2.19-1.61-.95-.4-2.01-.6-3.17-.6-1.39,0-2.59.21-3.61.63-1.01.42-1.83.98-2.45,1.67s-1.11,1.45-1.45,2.27c-.58,1.42-.88,2.96-.88,4.62,0,2.05.35,3.76,1.06,5.14.71,1.38,1.73,2.4,3.08,3.07,1.35.67,2.78,1,4.3,1,1.32,0,2.6-.25,3.86-.76,1.25-.51,2.2-1.05,2.85-1.62v-4.27h-6.75Z" inkscape:connector-curvature="0"/>
      <path id="path2768" class="st1" d="M794.99,913.03h3.21v3.21h-3.21v-3.21Z" inkscape:connector-curvature="0"/>
      <path id="path2770" class="st1" d="M804.94,907.92c0,2.13.47,3.73,1.39,4.79.93,1.06,2.1,1.59,3.51,1.59s2.56-.53,3.49-1.6c.93-1.07,1.39-2.69,1.39-4.88,0-2.06-.47-3.62-1.4-4.68-.93-1.06-2.1-1.59-3.49-1.59s-2.58.53-3.51,1.58c-.93,1.06-1.39,2.65-1.39,4.78M802.04,907.91c0-3.08.86-5.37,2.57-6.85,1.43-1.23,3.17-1.85,5.23-1.85,2.29,0,4.15.75,5.61,2.25,1.45,1.5,2.18,3.57,2.18,6.21,0,2.14-.32,3.83-.96,5.05s-1.58,2.18-2.8,2.86c-1.23.68-2.57,1.02-4.02,1.02-2.33,0-4.21-.75-5.65-2.24-1.44-1.49-2.15-3.65-2.15-6.46" inkscape:connector-curvature="0"/>
      <path id="path2772" class="st1" d="M820.91,916.24v-16.65h2.52v2.53c.65-1.18,1.25-1.96,1.8-2.34.55-.38,1.15-.57,1.81-.57.95,0,1.92.3,2.91.91l-.99,2.61c-.69-.4-1.38-.6-2.07-.6-.61,0-1.17.18-1.66.56-.49.37-.84.89-1.05,1.54-.32,1-.47,2.1-.47,3.29v8.71h-2.81Z" inkscape:connector-curvature="0"/>
      <path id="path2774" class="st1" d="M833.44,907.62c0,2.19.43,3.78,1.3,4.78.87,1,1.95,1.51,3.25,1.51s2.38-.5,3.26-1.5c.88-1,1.31-2.56,1.31-4.7s-.45-3.57-1.35-4.61c-.9-1.03-1.99-1.55-3.26-1.55s-2.32.51-3.19,1.53c-.88,1.02-1.31,2.53-1.31,4.54M831.1,917.61l2.75.42c.11.84.43,1.46.95,1.84.7.52,1.65.78,2.86.78,1.3,0,2.31-.26,3.02-.78.71-.52,1.19-1.25,1.44-2.2.15-.58.21-1.78.2-3.62-1.23,1.46-2.77,2.19-4.6,2.19-2.29,0-4.06-.83-5.31-2.48-1.25-1.65-1.88-3.63-1.88-5.94,0-1.59.29-3.05.86-4.4.57-1.34,1.41-2.38,2.5-3.11,1.09-.73,2.37-1.1,3.85-1.1,1.96,0,3.58.79,4.86,2.37v-2h2.6v14.39c0,2.59-.26,4.43-.79,5.51-.53,1.08-1.36,1.93-2.51,2.56-1.15.63-2.55.94-4.22.94-1.99,0-3.59-.45-4.81-1.34s-1.81-2.24-1.77-4.03" inkscape:connector-curvature="0"/>
    </g>
    <path id="path2776" class="st0" d="M611.97,473.1l-90.87-28.62-15.61-39.03-2.76,20.2-36.35-23.21,14.17-16.32-21.14-52.67,82.12,63.97,4.08,32.74,66.35,42.94ZM162.57,430.04l-1.28,1.28-2.93-1.63,4.21.35ZM638.97,543.59c-43.84-3.51-88.55-17.11-135.03-43.26-42.97-24.17-88.62-41.52-135.44-52.06l41.47-29.14-42.51-65.86,28.74-34.72-17.96-43.11-81.42,38.32,82.32-78.73,275.6,229.91-3.98,19.89,12.84-3.35-14.63,12.24-4.29,21.43-2.03,10.14,15.19-5.2-17.74,17.93-1.11,5.56ZM683.22,540.82l-14.63-8.14,15.99,1.34-1.36,6.8ZM70.33,488.54c332.5-83.13,336.12,208.11,590.37,144.54-245.43,113.72-272.98-180.92-590.37-144.54M770.97,453.57l-214.33-194.89-59.87,53.88-116.15-100.58-165.08,165.08-.61-3.02-16.24-6.25,15.02.82-4.3-22.16-10.72-3.92h9.93l-9.93-49.58-7.72,38.56,7.72-2.04-8.38,5.31-4.47,22.29,12.84-3.35-14.62,12.24-4.29,21.43-2.03,10.14,15.19-5.2-17.74,17.93-1.66,8.27-1.28-6.37-2.68-13.36-16.24-6.25,15.02.82-4.3-22.16-10.72-3.92h9.93l-9.93-49.58-7.72,38.56,7.72-2.04-8.38,5.31-4.46,22.29,12.84-3.35-14.62,12.24-4.29,21.43-2.03,10.14,15.19-5.2-17.74,17.93-3.78,18.89c-2.12.58-4.24,1.19-6.36,1.8l-18.67-10.4,17.71,1.48-3.8-19-2.68-13.36-16.24-6.25,15.02.82-4.3-22.16-10.72-3.92h9.93l-9.93-49.58-7.72,38.56,7.72-2.04-8.38,5.31-4.47,22.29,12.84-3.35-14.62,12.24-4.29,21.43-2.03,10.14,15.19-5.2-17.74,17.93-4.64,23.15c-18.59,7.66-36.84,16.49-54.62,26.49,83.95-26.39,155.44-41.94,224.71-38.91l1.65-8.25,8.87-8.97-7.59,2.6,1.02-5.07,2.15-10.72,7.31-6.12-6.42,1.68,2.23-11.14,4.19-2.66-3.86,1.02,3.86-19.28,4.97,24.79h-4.97l5.36,1.96,2.15,11.08-7.51-.41,8.12,3.12,1.34,6.68,1.9,9.5-8.85-.74,9.8,5.45,1.53,7.64c6.63.77,13.24,1.73,19.86,2.88l17.73-17.93-15.19,5.19,2.03-10.14,4.29-21.43,14.62-12.24-12.84,3.35,4.47-22.29,8.38-5.31-7.72,2.04,7.72-38.56,9.93,49.58h-9.93l10.72,3.92,4.3,22.16-15.02-.82,16.24,6.25,2.67,13.36,3.81,19-17.71-1.49,19.6,10.91,1.31,6.54c42.41,13.47,85.79,35.21,132.46,67,120.7,82.24,311.85,51.12,402.04-64.74-38.63,21.73-76.65,38.95-114.7,49.97l-.66-3.3-9.8-5.45,8.86.74-1.91-9.5-1.34-6.68-8.12-3.13,7.51.41-2.15-11.08-5.36-1.96h4.97l-4.97-24.79-3.86,19.28,3.86-1.02-4.19,2.65-2.23,11.15,6.42-1.68-7.31,6.12-2.15,10.72-1.01,5.07,7.59-2.6-8.87,8.97-2.58,12.89h.01c-.78.16-1.56.32-2.34.48l-.89-4.47-15.56-8.67,14.06,1.18-3.02-15.09-2.12-10.61-12.9-4.96,11.93.65-3.42-17.6-8.51-3.11h7.89l-7.89-39.37-6.13,30.62,6.13-1.62-6.65,4.22-3.54,17.7,10.2-2.66-11.61,9.72-3.41,17.02-1.61,8.05,12.06-4.13-14.09,14.24-.12.57-2.93-14.63-2.68-13.36-16.24-6.25,15.02.82-4.3-22.16-10.72-3.92h9.93l-9.93-49.58-7.72,38.56,7.72-2.04-8.38,5.31-.43,2.17-71.35-67.55,93.57,11.2-86.81-49.09,5.09,21.25-47-41.01-23.99,1.66-13.13-12.43,76.63,10.18-5.99-33.53,189.19,148.19Z" inkscape:connector-curvature="0"/>
  </g>
</svg>